<svg width="176" height="176" viewBox="0 0 176 176" fill="none" xmlns="http://www.w3.org/2000/svg">
<circle cx="88" cy="88" r="88" fill="#004763"/>
<mask id="path-2-inside-1_1_12" fill="white">
<path d="M141 129C141 116.535 135.416 104.58 125.477 95.766C115.537 86.9518 102.056 82 88 82C73.9435 82 60.4628 86.9518 50.5233 95.766C40.5839 104.58 35 116.535 35 129L88 129H141Z"/>
</mask>
<path d="M141 129C141 116.535 135.416 104.58 125.477 95.766C115.537 86.9518 102.056 82 88 82C73.9435 82 60.4628 86.9518 50.5233 95.766C40.5839 104.58 35 116.535 35 129L88 129H141Z" stroke="#D9D9D9" stroke-width="8" mask="url(#path-2-inside-1_1_12)"/>
<circle cx="87.5" cy="62.5" r="20.5" stroke="#D9D9D9" stroke-width="4"/>
</svg>
